<svg width="454" height="74" viewBox="0 0 454 74" fill="none" xmlns="http://www.w3.org/2000/svg">
<path d="M439.419 0.896469H380.769V59.5468H439.419V0.896469Z" fill="white"/>
<path d="M439.419 0.896469V59.5468H380.769L395.209 73.9919H453.864V15.3372L439.419 0.896469Z" fill="#DADBDC"/>
<path d="M423.891 44.1076C423.603 43.5307 423.07 43.0647 422.05 42.4967L421.499 42.1949C420.918 41.8665 420.736 41.7245 420.732 41.7245C420.714 41.7023 420.563 41.5292 420.208 40.9257L413.596 30.4613C413.52 30.3415 413.427 30.1994 413.32 30.0441C413.431 29.8799 413.529 29.7246 413.6 29.6003L419.831 19.5265C420.248 18.8785 420.408 18.6922 420.408 18.6922C420.43 18.6744 420.594 18.5413 421.109 18.2528L421.695 17.9333C422.706 17.3741 423.234 16.9082 423.523 16.3312C423.732 15.9141 423.869 15.3638 423.869 14.0147V10.1848H420.922C420.075 10.1848 419.533 10.2381 419.116 10.3712C418.819 10.4644 418.384 10.6464 417.461 11.281L416.471 11.9555C415.486 12.6256 414.678 13.4999 414.079 14.525L406.744 26.3341H403.917V10.1937H395.946V50.2495H403.917V33.5811H406.535L414.128 45.8428C414.714 46.8058 414.993 47.1519 415.162 47.3383C415.428 47.6312 415.841 47.9774 416.52 48.4744L417.505 49.149C418.446 49.7969 418.877 49.9744 419.165 50.0631C419.582 50.1918 420.124 50.2495 420.976 50.2495H424.233V46.4197C424.233 45.075 424.095 44.5203 423.887 44.1076" fill="#040607"/>
<path d="M366.324 0.896423H307.673V59.5467H366.324V0.896423Z" fill="white"/>
<path d="M366.328 0.896423V59.5467H307.673L322.118 73.9919H380.769V15.3371L366.328 0.896423Z" fill="#DADBDC"/>
<path d="M350.228 12.7721L348.981 11.7336C347.827 10.7706 346.602 10.2825 345.346 10.2825H328.651C327.395 10.2825 326.175 10.7706 325.016 11.7336L323.774 12.7721C322.54 13.8017 321.883 15.1774 321.883 16.7395V43.7037C321.883 45.2703 322.536 46.6416 323.774 47.6711L325.016 48.7096C326.175 49.6726 327.395 50.1608 328.651 50.1608H345.346C346.606 50.1608 347.827 49.6726 348.981 48.7096L350.228 47.6711C351.461 46.6416 352.118 45.2703 352.118 43.7037V39.8384H344.183V42.612C344.183 42.7097 344.183 42.7895 344.183 42.8605C344.148 42.8872 344.112 42.9138 344.086 42.9315C343.97 42.9404 343.766 42.9449 343.438 42.9449H330.577C330.253 42.9449 330.044 42.936 329.929 42.9315C329.902 42.9138 329.867 42.8872 329.831 42.8605C329.831 42.7895 329.831 42.7097 329.831 42.612V17.8268C329.831 17.7291 329.831 17.6492 329.831 17.5782C329.871 17.5472 329.902 17.525 329.929 17.5072C330.044 17.4984 330.249 17.4939 330.577 17.4939H343.438C343.762 17.4939 343.966 17.5028 344.086 17.5072C344.112 17.525 344.148 17.5516 344.183 17.5782C344.183 17.6492 344.183 17.7291 344.183 17.8268V20.6004H352.118V16.7351C352.118 15.1685 351.466 13.7972 350.232 12.7676" fill="#040607"/>
<path d="M293.228 0.896469H234.578V59.5468H293.228V0.896469Z" fill="white"/>
<path d="M293.233 0.896469V59.5468H234.578L249.023 73.9919H307.673V15.3372L293.233 0.896469Z" fill="#DADBDC"/>
<path d="M272.393 17.5827V42.8606C272.393 42.9582 272.393 43.0425 272.393 43.1135C272.353 43.1446 272.322 43.1668 272.29 43.189C272.171 43.1978 271.966 43.2023 271.629 43.2023H256.19C255.857 43.2023 255.649 43.1934 255.529 43.189C255.502 43.1712 255.467 43.1446 255.427 43.1135C255.427 43.0425 255.427 42.9582 255.427 42.8606V17.5827C255.427 17.4851 255.427 17.4007 255.427 17.3297C255.467 17.2987 255.498 17.2765 255.529 17.2543C255.649 17.2454 255.853 17.2365 256.19 17.2365H271.629C271.971 17.2365 272.175 17.2454 272.286 17.2499C272.317 17.272 272.348 17.2942 272.388 17.3253C272.388 17.3963 272.388 17.4806 272.388 17.5783M278.557 12.4215L277.287 11.3609C276.107 10.3801 274.86 9.87863 273.582 9.87863H254.224C252.946 9.87863 251.699 10.3757 250.518 11.3609L249.249 12.4171C247.989 13.4688 247.323 14.8667 247.323 16.4644V43.9611C247.323 45.5588 247.989 46.9567 249.249 48.0084L250.518 49.0646C251.699 50.0454 252.946 50.5469 254.224 50.5469H273.582C274.864 50.5469 276.111 50.0498 277.292 49.0646L278.561 48.0084C279.821 46.9567 280.487 45.5588 280.487 43.9611V16.4644C280.487 14.8667 279.821 13.4688 278.561 12.4171" fill="#040607"/>
<path d="M220.137 0.896469H161.487V59.5468H220.137V0.896469Z" fill="white"/>
<path d="M220.137 0.896469V59.5468H161.487L175.928 73.9919H234.578V15.3372L220.137 0.896469Z" fill="#DADBDC"/>
<path d="M185.877 10.7617H178.133V49.6815H203.491V42.6475H185.877V10.7617Z" fill="#040607"/>
<path d="M147.042 0.896469H88.3916V59.5468H147.042V0.896469Z" fill="white"/>
<path d="M147.042 0.896469V59.5468H88.3916L102.832 73.9919H161.487V15.3372L147.042 0.896469Z" fill="#DADBDC"/>
<path d="M123.326 24.5856C123.326 24.7498 123.326 24.874 123.317 24.9761C123.273 25.016 123.224 25.0604 123.162 25.1092L121.826 26.1921C121.733 26.2675 121.666 26.3163 121.613 26.3518C121.498 26.3607 121.285 26.3696 120.925 26.3696H111.491V17.5294H122.581C122.905 17.5294 123.109 17.5383 123.229 17.5427C123.255 17.5605 123.291 17.5871 123.326 17.6138C123.326 17.6848 123.326 17.7646 123.326 17.8623V24.5856ZM122.585 33.8251L123.766 34.7881C123.837 34.8414 123.894 34.8902 123.943 34.9302C123.943 35.01 123.948 35.1121 123.948 35.2364V42.5765C123.948 42.6742 123.948 42.754 123.948 42.825C123.912 42.8517 123.877 42.8783 123.85 42.896C123.734 42.9049 123.53 42.9094 123.202 42.9094H111.495V33.5544H121.808C122.013 33.5544 122.163 33.5589 122.266 33.5677C122.337 33.621 122.443 33.7009 122.59 33.8251M130.542 31.0071L128.74 29.5426L129.757 28.766C130.715 27.985 131.243 26.8711 131.243 25.624V16.7839C131.243 15.2218 130.591 13.8549 129.362 12.8253L128.119 11.7913C126.965 10.8328 125.745 10.3446 124.493 10.3446H103.578V50.1075H125.115C126.366 50.1075 127.591 49.6149 128.771 48.6297C129.286 48.1815 129.668 47.862 129.903 47.6845L129.979 47.6268C131.208 46.6016 131.86 45.2303 131.86 43.6682V34.3621C131.86 33.479 131.785 32.9109 131.612 32.4538C131.416 31.9568 131.066 31.4864 130.538 31.016" fill="#040607"/>
<path d="M59.5146 0.896469H0.864258V59.5468H59.5146V0.896469Z" fill="#4D54FF"/>
<path d="M59.5146 0.896469V59.5468H0.864258L15.3049 73.9919H73.9597V15.3372L59.5146 0.896469Z" fill="#DADBDC"/>
<path d="M35.2707 35.8089H24.9705L30.0651 20.6803L35.2707 35.8089ZM25.6184 9.86533L11.657 50.5824H19.9646L22.614 42.9049H37.6538L40.4052 50.5824H48.7128L34.4718 9.86533H25.6228H25.6184Z" fill="white"/>
</svg>
