<svg width="111" height="111" viewBox="0 0 111 111" fill="none" xmlns="http://www.w3.org/2000/svg">
<path d="M61.7238 53.4226L65.7687 61.1251L69.9141 53.4226H76.1823L69.7993 64.4386L76.3544 75.4545H70.1149L65.7687 67.838L61.4943 75.4545H55.1831L61.7238 64.4386L55.4126 53.4226H61.7238Z" fill="#4D54FF"/>
<path d="M32 75.4545V46.0786H51.7943V51.1993H38.2108V58.199H50.7759V63.3197H38.2108V70.3338H51.8517V75.4545H32Z" fill="#4D54FF"/>
<path d="M87.3325 2L2 2L2 87.3325L87.3325 87.3325L87.3325 2Z" stroke="#4D54FF" stroke-width="3.56987" stroke-linejoin="round"/>
<path d="M87.3325 2L87.3325 87.3325L2 87.3325L23.0103 108.349L108.349 108.349L108.349 23.0103L87.3325 2Z" stroke="#4D54FF" stroke-width="3.56987" stroke-linejoin="round"/>
<line x1="86.4755" y1="86.2609" x2="108.473" y2="108.259" stroke="#4D54FF" stroke-width="3.56987"/>
</svg>
