<svg width="454" height="74" viewBox="0 0 454 74" fill="none" xmlns="http://www.w3.org/2000/svg">
<path d="M59.5166 0.896362H0.864502V59.5484H59.5166V0.896362Z" fill="#4D54FF"/>
<path d="M59.5166 0.896362V59.5484H0.864502L15.3079 73.9918H73.9599V15.3397L59.5166 0.896362Z" fill="#DADBDC"/>
<path d="M25.0195 35.7722L30.0648 20.7886L35.2218 35.7722H25.0195ZM34.4953 9.83188H25.597L11.6132 50.616H19.996L22.6444 42.9411H37.6342L40.3881 50.616H48.771L34.4953 9.83188Z" fill="white"/>
<path d="M220.135 0.896362H161.483V59.5484H220.135V0.896362Z" fill="white"/>
<path d="M220.135 0.896362V59.5484H161.483L175.926 73.9918H234.579V15.3397L220.135 0.896362Z" fill="#DADBDC"/>
<path d="M185.685 43.1832V9.83188H177.513V50.6129H204.109V43.1832H185.685Z" fill="#040607"/>
<path d="M293.231 0.896362H234.579V59.5484H293.231V0.896362Z" fill="white"/>
<path d="M293.231 0.896362V59.5484H234.579L249.019 73.9918H307.671V15.3397L293.231 0.896362Z" fill="#DADBDC"/>
<path d="M272.364 17.5689V42.8728C272.364 42.9628 272.364 43.0435 272.364 43.1087C272.333 43.1305 272.308 43.1491 272.286 43.1646C272.168 43.1708 271.963 43.1801 271.634 43.1801H256.175C255.846 43.1801 255.641 43.1708 255.523 43.1646C255.502 43.1491 255.477 43.1305 255.446 43.1087C255.446 43.0404 255.446 42.9628 255.446 42.8728V17.5689C255.446 17.4789 255.446 17.4013 255.446 17.333C255.477 17.3113 255.502 17.2926 255.523 17.2771C255.641 17.2709 255.843 17.2616 256.175 17.2616H271.634C271.963 17.2616 272.165 17.2678 272.283 17.2771C272.305 17.2926 272.333 17.3113 272.361 17.333C272.361 17.4013 272.361 17.4789 272.361 17.5689M278.595 12.3809L277.325 11.3222C276.139 10.3349 274.882 9.83188 273.59 9.83188H254.213C252.922 9.83188 251.667 10.3349 250.478 11.3222L249.208 12.3809C247.938 13.4396 247.268 14.8492 247.268 16.4574V43.9874C247.268 45.5987 247.938 47.0083 249.208 48.0639L250.478 49.1227C251.664 50.1131 252.922 50.6129 254.213 50.6129H273.59C274.882 50.6129 276.139 50.11 277.325 49.1227L278.595 48.0639C279.865 47.0052 280.535 45.5956 280.535 43.9843V16.4574C280.535 14.8492 279.865 13.4396 278.595 12.3809Z" fill="#040607"/>
<path d="M366.323 0.896362H307.671V59.5484H366.323V0.896362Z" fill="white"/>
<path d="M366.323 0.896362V59.5484H307.671L322.114 73.9918H380.766V15.3397L366.323 0.896362Z" fill="#DADBDC"/>
<path d="M352.467 20.4377V16.4574C352.467 14.8492 351.796 13.4396 350.526 12.3809L349.256 11.3222C348.07 10.3349 346.813 9.83188 345.524 9.83188H328.476C327.185 9.83188 325.93 10.3349 324.744 11.3222L323.471 12.3809C322.201 13.4396 321.531 14.8492 321.531 16.4574V43.9874C321.531 45.5956 322.201 47.0083 323.471 48.0639L324.741 49.1227C325.927 50.1131 327.185 50.6129 328.476 50.6129H345.524C346.816 50.6129 348.073 50.11 349.259 49.1227L350.529 48.0639C351.799 47.0052 352.47 45.5956 352.47 43.9843V40.004H344.298V42.8728C344.298 42.9628 344.298 43.0435 344.298 43.1087C344.267 43.1305 344.242 43.1491 344.22 43.1646C344.102 43.1708 343.898 43.1801 343.568 43.1801H330.438C330.109 43.1801 329.904 43.1708 329.786 43.1646C329.765 43.1491 329.74 43.1305 329.709 43.1087C329.709 43.0404 329.709 42.9628 329.709 42.8728V17.5689C329.709 17.4789 329.709 17.4013 329.709 17.333C329.74 17.3113 329.765 17.2926 329.786 17.2771C329.904 17.2709 330.109 17.2616 330.438 17.2616H343.568C343.898 17.2616 344.099 17.2678 344.217 17.2771C344.239 17.2926 344.267 17.3113 344.295 17.333C344.295 17.4013 344.295 17.4789 344.295 17.5689V20.4377H352.467Z" fill="#040607"/>
<path d="M439.418 0.896362H380.766V59.5484H439.418V0.896362Z" fill="white"/>
<path d="M439.415 0.896362V59.5484H380.766L395.207 73.9918H453.859V15.3397L439.415 0.896362Z" fill="#DADBDC"/>
<path d="M424.146 44.3196C423.851 43.7297 423.308 43.2515 422.258 42.6678L421.696 42.3605C421.172 42.0655 420.973 41.9227 420.914 41.8792C420.867 41.8234 420.718 41.6278 420.43 41.1372L413.68 30.4537C413.596 30.3202 413.506 30.1836 413.413 30.047C413.509 29.9042 413.599 29.7582 413.686 29.6154L420.029 19.3604C420.405 18.7798 420.569 18.5749 420.61 18.5283C420.659 18.488 420.846 18.3513 421.305 18.0937L421.898 17.7708C422.935 17.1964 423.475 16.7213 423.774 16.1283C424.028 15.6161 424.127 14.9516 424.127 13.7594V9.83188H421.1C420.237 9.83188 419.685 9.88776 419.253 10.0213C418.821 10.1548 418.312 10.4342 417.561 10.9527L416.558 11.6388C415.561 12.3188 414.736 13.2068 414.105 14.281L406.673 26.2437H403.853V9.83188H395.682V50.616H403.853V33.6765H406.458L414.164 46.1266C414.639 46.9058 414.959 47.3623 415.22 47.651C415.49 47.9491 415.903 48.2937 416.558 48.7749L417.607 49.4952C418.365 50.0168 418.874 50.2962 419.306 50.4298C419.734 50.5633 420.287 50.6191 421.153 50.6191H424.497V46.6916C424.497 45.4994 424.398 44.835 424.143 44.3258" fill="#040607"/>
<path d="M147.043 0.896362H88.3909V59.5484H147.043V0.896362Z" fill="white"/>
<path d="M147.043 0.896362V59.5484H88.3909L102.831 73.9918H161.483V15.3397L147.043 0.896362Z" fill="#DADBDC"/>
<path d="M108.292 9.83188H100.096V50.616H108.292V9.83188Z" fill="#040607"/>
<path d="M134.779 43.9874V34.4589C134.779 33.5523 134.701 32.9655 134.521 32.4904C134.323 31.9751 133.963 31.4907 133.413 31.0033L131.6 29.5285L132.562 28.7927L132.606 28.7585C133.609 27.942 134.143 26.8211 134.143 25.514V16.4606C134.143 14.8523 133.472 13.4427 132.202 12.384L130.932 11.3253C129.746 10.338 128.489 9.83499 127.2 9.83499H112.397V17.2678H125.244C125.573 17.2678 125.775 17.274 125.896 17.2833C125.918 17.2988 125.943 17.3175 125.974 17.3392C125.974 17.4075 125.974 17.4851 125.974 17.5752V24.4584C125.974 24.6199 125.974 24.7441 125.968 24.8403C125.927 24.8776 125.878 24.9179 125.819 24.9676L124.446 26.076C124.356 26.1474 124.288 26.1971 124.242 26.2312C124.12 26.2406 123.906 26.2499 123.549 26.2499H112.397V33.6827H124.45C124.661 33.6827 124.807 33.6858 124.903 33.692C124.974 33.7448 125.08 33.8255 125.226 33.9497L126.39 34.9028L126.433 34.937C126.502 34.9898 126.558 35.0332 126.604 35.0705C126.604 35.1512 126.607 35.2475 126.607 35.3655V42.8821C126.607 42.9721 126.607 43.0528 126.607 43.118C126.576 43.1398 126.551 43.1584 126.53 43.1739C126.412 43.1832 126.207 43.1895 125.878 43.1895H112.397V50.6223H127.837C129.128 50.6223 130.386 50.1193 131.572 49.132L131.606 49.104C132.264 48.5265 132.6 48.2595 132.764 48.1353L132.842 48.0764C134.112 47.0176 134.782 45.6081 134.782 43.9967" fill="#040607"/>
</svg>
